<?xml version="1.0" encoding="UTF-8"?>
<svg xmlns="http://www.w3.org/2000/svg" xmlns:xlink="http://www.w3.org/1999/xlink" width="25px" height="25px" viewBox="0 0 25 25" version="1.1">
<g id="surface1">
<path style=" stroke:none;fill-rule:nonzero;fill:rgb(0%,0%,0%);fill-opacity:1;" d="M 19.644531 10.714844 C 19.644531 12.007812 19.207031 13.203125 18.332031 14.300781 C 17.457031 15.398438 16.265625 16.265625 14.753906 16.902344 C 13.242188 17.539062 11.597656 17.855469 9.820312 17.855469 C 9.023438 17.855469 8.203125 17.78125 7.367188 17.632812 C 6.210938 18.453125 4.921875 19.046875 3.488281 19.417969 C 3.152344 19.503906 2.753906 19.578125 2.289062 19.644531 L 2.246094 19.644531 C 2.144531 19.644531 2.046875 19.605469 1.960938 19.53125 C 1.871094 19.457031 1.816406 19.359375 1.800781 19.238281 C 1.789062 19.210938 1.785156 19.179688 1.785156 19.148438 C 1.785156 19.113281 1.789062 19.085938 1.792969 19.058594 C 1.796875 19.027344 1.804688 19 1.820312 18.972656 L 1.855469 18.902344 L 1.90625 18.828125 L 1.960938 18.757812 L 2.023438 18.6875 L 2.078125 18.625 C 2.125 18.570312 2.230469 18.453125 2.398438 18.277344 C 2.566406 18.097656 2.6875 17.960938 2.761719 17.863281 C 2.835938 17.765625 2.941406 17.632812 3.078125 17.460938 C 3.210938 17.289062 3.328125 17.109375 3.425781 16.921875 C 3.523438 16.738281 3.617188 16.53125 3.710938 16.308594 C 2.558594 15.640625 1.652344 14.816406 0.992188 13.839844 C 0.332031 12.863281 0 11.820312 0 10.714844 C 0 9.421875 0.4375 8.226562 1.3125 7.128906 C 2.1875 6.03125 3.378906 5.164062 4.890625 4.527344 C 6.402344 3.890625 8.046875 3.570312 9.820312 3.570312 C 11.597656 3.570312 13.242188 3.890625 14.753906 4.527344 C 16.265625 5.164062 17.457031 6.03125 18.332031 7.128906 C 19.207031 8.226562 19.644531 9.421875 19.644531 10.714844 Z M 25 14.285156 C 25 15.402344 24.667969 16.445312 24.007812 17.417969 C 23.347656 18.390625 22.441406 19.210938 21.289062 19.878906 C 21.382812 20.101562 21.476562 20.308594 21.574219 20.492188 C 21.671875 20.679688 21.789062 20.859375 21.921875 21.03125 C 22.058594 21.203125 22.164062 21.335938 22.238281 21.4375 C 22.3125 21.53125 22.433594 21.671875 22.601562 21.847656 C 22.769531 22.023438 22.875 22.140625 22.921875 22.195312 C 22.929688 22.207031 22.949219 22.226562 22.976562 22.257812 C 23.003906 22.292969 23.027344 22.3125 23.039062 22.328125 C 23.054688 22.34375 23.074219 22.367188 23.09375 22.398438 C 23.117188 22.429688 23.136719 22.457031 23.144531 22.476562 L 23.179688 22.542969 L 23.207031 22.628906 L 23.214844 22.71875 L 23.199219 22.808594 C 23.171875 22.941406 23.113281 23.042969 23.019531 23.117188 C 22.925781 23.191406 22.824219 23.222656 22.710938 23.214844 C 22.246094 23.148438 21.847656 23.074219 21.511719 22.992188 C 20.078125 22.617188 18.789062 22.023438 17.632812 21.207031 C 16.796875 21.355469 15.976562 21.429688 15.179688 21.429688 C 12.65625 21.429688 10.464844 20.816406 8.59375 19.585938 C 9.132812 19.625 9.542969 19.644531 9.820312 19.644531 C 11.320312 19.644531 12.753906 19.433594 14.132812 19.015625 C 15.507812 18.597656 16.738281 17.996094 17.816406 17.214844 C 18.976562 16.359375 19.871094 15.375 20.492188 14.257812 C 21.117188 13.140625 21.429688 11.960938 21.429688 10.714844 C 21.429688 10 21.320312 9.292969 21.109375 8.59375 C 22.308594 9.253906 23.257812 10.082031 23.953125 11.078125 C 24.652344 12.070312 25 13.140625 25 14.285156 Z M 25 14.285156 "/>
</g>
</svg>
