<?xml version="1.0" encoding="UTF-8"?>
<svg xmlns="http://www.w3.org/2000/svg" xmlns:xlink="http://www.w3.org/1999/xlink" width="25px" height="25px" viewBox="0 0 25 25" version="1.1">
<g id="surface1">
<path style=" stroke:none;fill-rule:nonzero;fill:rgb(0%,0%,0%);fill-opacity:1;" d="M 10.675781 3.125 C 6.515625 3.125 3.125 6.515625 3.125 10.675781 C 3.125 14.839844 6.515625 18.230469 10.675781 18.230469 C 12.476562 18.230469 14.132812 17.59375 15.433594 16.535156 L 20.542969 21.644531 C 20.738281 21.851562 21.027344 21.933594 21.300781 21.859375 C 21.574219 21.789062 21.789062 21.574219 21.859375 21.300781 C 21.933594 21.027344 21.851562 20.738281 21.644531 20.542969 L 16.535156 15.433594 C 17.59375 14.132812 18.230469 12.476562 18.230469 10.675781 C 18.230469 6.515625 14.839844 3.125 10.675781 3.125 Z M 10.675781 4.6875 C 13.996094 4.6875 16.667969 7.359375 16.667969 10.675781 C 16.667969 12.292969 16.027344 13.753906 14.996094 14.828125 C 14.929688 14.875 14.875 14.929688 14.828125 14.996094 C 13.753906 16.027344 12.292969 16.667969 10.675781 16.667969 C 7.359375 16.667969 4.6875 13.996094 4.6875 10.675781 C 4.6875 7.359375 7.359375 4.6875 10.675781 4.6875 Z M 10.675781 4.6875 "/>
</g>
</svg>
