<?xml version="1.0" encoding="UTF-8"?>
<svg xmlns="http://www.w3.org/2000/svg" xmlns:xlink="http://www.w3.org/1999/xlink" width="20px" height="20px" viewBox="0 0 20 20" version="1.1">
<g id="surface1">
<path style=" stroke:none;fill-rule:nonzero;fill:rgb(0%,0%,0%);fill-opacity:1;" d="M 15.9375 10.40625 C 15.9375 11.21875 15.28125 11.875 14.46875 11.875 C 13.65625 11.875 13 11.21875 13 10.40625 C 13 9.59375 13.65625 8.9375 14.46875 8.9375 C 15.28125 8.9375 15.9375 9.59375 15.9375 10.40625 Z M 15.9375 10.40625 "/>
<path style=" stroke:none;fill-rule:nonzero;fill:rgb(0%,0%,0%);fill-opacity:1;" d="M 11.78125 10.40625 C 11.78125 11.21875 11.125 11.875 10.3125 11.875 C 9.5 11.875 8.84375 11.21875 8.84375 10.40625 C 8.84375 9.59375 9.5 8.9375 10.3125 8.9375 C 11.125 8.9375 11.78125 9.59375 11.78125 10.40625 Z M 11.78125 10.40625 "/>
<path style=" stroke:none;fill-rule:nonzero;fill:rgb(0%,0%,0%);fill-opacity:1;" d="M 7.625 10.40625 C 7.625 11.21875 6.96875 11.875 6.15625 11.875 C 5.34375 11.875 4.6875 11.21875 4.6875 10.40625 C 4.6875 9.59375 5.34375 8.9375 6.15625 8.9375 C 6.96875 8.9375 7.625 9.59375 7.625 10.40625 Z M 7.625 10.40625 "/>
</g>
</svg>
