<?xml version="1.0" encoding="UTF-8"?>
<svg xmlns="http://www.w3.org/2000/svg" xmlns:xlink="http://www.w3.org/1999/xlink" width="25px" height="25px" viewBox="0 0 25 25" version="1.1">
<g id="surface1">
<path style="fill:none;stroke-width:9.260416;stroke-linecap:round;stroke-linejoin:round;stroke:rgb(0%,0%,0%);stroke-opacity:1;stroke-miterlimit:4;" d="M -1792.544278 -222.468219 C -1792.544278 -245.3588 -1811.036163 -263.908563 -1833.868866 -263.908563 C -1856.70157 -263.908563 -1875.193455 -245.3588 -1875.193455 -222.468219 C -1875.193455 -199.577638 -1856.70157 -180.998936 -1833.868866 -180.998936 C -1811.036163 -180.998936 -1792.544278 -199.577638 -1792.544278 -222.468219 Z M -1792.544278 -222.468219 " transform="matrix(0.134983,0,0,0.134983,260.041478,36.248221)"/>
<path style="fill:none;stroke-width:9.260416;stroke-linecap:round;stroke-linejoin:round;stroke:rgb(0%,0%,0%);stroke-opacity:1;stroke-miterlimit:4;" d="M -1921.582332 -88.04755 L -1746.155401 -88.04755 M -1921.582332 -88.04755 C -1921.784903 -90.275837 -1921.842781 -92.504123 -1921.842781 -94.73241 C -1921.842781 -142.365655 -1882.457091 -180.998936 -1833.868866 -180.998936 C -1785.280642 -180.998936 -1745.894952 -142.365655 -1745.894952 -94.73241 C -1745.894952 -92.504123 -1745.981768 -90.275837 -1746.155401 -88.04755 " transform="matrix(0.134983,0,0,0.134983,260.041478,36.248221)"/>
</g>
</svg>
