<svg xmlns="http://www.w3.org/2000/svg" version="1.1" xmlns:xlink="http://www.w3.org/1999/xlink" xmlns:svgjs="http://svgjs.dev/svgjs" width="1000" height="300" viewBox="0 0 1000 300"><g transform="matrix(1,0,0,1,-0.6060606060606233,0.3429388923838701)"><svg viewBox="0 0 396 119" data-background-color="#ffffff" preserveAspectRatio="xMidYMid meet" height="300" width="1000" xmlns="http://www.w3.org/2000/svg" xmlns:xlink="http://www.w3.org/1999/xlink"><defs></defs><g id="tight-bounds" transform="matrix(1,0,0,1,0.2400000000000091,-0.13603242731227283)"><svg viewBox="0 0 395.52 119.27206485462456" height="119.27206485462456" width="395.52"><g><svg viewBox="0 0 395.52 119.27206485462456" height="119.27206485462456" width="395.52"><g><svg viewBox="0 0 395.52 119.27206485462456" height="119.27206485462456" width="395.52"><g><svg viewBox="0 0 395.52 119.27206485462456" height="119.27206485462456" width="395.52"><g><rect width="395.52" height="91.7497271042179" fill="none" stroke-width="9.018103199999999" stroke="#e363aa" data-fill-palette-color="none" data-stroke-palette-color="tertiary"></rect><rect width="395.52" height="27.52233775040666" y="91.7497271042179" fill="#e363aa" data-fill-palette-color="tertiary"></rect></g><g><svg viewBox="0 0 395.52 91.7497271042179" height="91.7497271042179" width="395.52"><g transform="matrix(1,0,0,1,23.607599999999998,23.6076)"><svg width="348.3048" viewBox="2 -32.52000045776367 258.1300048828125 33.01000213623047" height="44.534527104217894" data-palette-color="#e363aa"><path d="M2.98-23.93L2.98-23.93Q2.98-27.69 5.86-30.1 8.74-32.52 12.55-32.52L12.55-32.52Q13.62-32.52 14.58-32.4 15.53-32.28 16.14-32.13 16.75-31.98 17.9-31.67 19.04-31.35 19.92-31.15L19.92-31.15Q20.51-28.56 20.51-24.17L20.51-24.17Q20.51-23.83 20.02-23.83L20.02-23.83Q18.85-23.83 18.75-24.32L18.75-24.32Q18.51-26.46 16.67-28.49 14.84-30.52 12.21-30.52L12.21-30.52Q9.28-30.52 8.08-29.05 6.88-27.59 6.88-25.44L6.88-25.44Q6.88-24.51 7.23-23.66 7.57-22.8 7.91-22.24 8.25-21.68 9.16-20.95 10.06-20.21 10.47-19.92 10.89-19.63 12.13-18.85 13.38-18.07 13.72-17.87L13.72-17.87Q13.96-17.72 15.43-16.82 16.89-15.92 17.43-15.55 17.97-15.19 19.12-14.23 20.26-13.28 20.78-12.55 21.29-11.82 21.75-10.72 22.22-9.62 22.22-8.45L22.22-8.45Q22.22-4.54 19.17-2.03 16.11 0.49 12.01 0.49L12.01 0.49Q10.84 0.49 9.52 0.32 8.2 0.15 7.32-0.02 6.45-0.2 5.1-0.51 3.76-0.83 3.22-0.93L3.22-0.93Q2-6.93 2-8.69L2-8.69Q2-8.98 2.78-8.98L2.78-8.98Q3.66-8.98 4-8.54L4-8.54Q5.66-1.51 12.11-1.51L12.11-1.51Q14.55-1.51 16.26-2.98 17.97-4.44 17.97-7.13L17.97-7.13Q17.97-8.11 17.68-8.94 17.38-9.77 17.07-10.3 16.75-10.84 15.94-11.45 15.14-12.06 14.7-12.35 14.26-12.65 13.09-13.28 11.91-13.92 11.47-14.16L11.47-14.16Q10.06-14.99 9.5-15.33 8.94-15.67 7.64-16.53 6.35-17.38 5.76-18.04 5.18-18.7 4.39-19.65 3.61-20.61 3.3-21.68 2.98-22.75 2.98-23.93ZM48.73-6.59L48.73-6.59 48.73-15.19Q48.73-15.19 48.63-15.38L48.63-15.38Q44.04-15.48 41.4-15.48L41.4-15.48Q33.88-15.48 33.88-15.23L33.88-15.23 33.88-6.79Q33.88-3.96 34.32-2.25L34.32-2.25Q34.42-1.9 35.69-1.59 36.96-1.27 37.45-1.27L37.45-1.27Q37.6-1.27 37.62-0.68 37.64-0.1 37.55 0.15L37.55 0.15Q32.66-0.1 31.88-0.1L31.88-0.1Q31.64-0.1 26.02 0.15L26.02 0.15Q25.83-0.05 25.83-0.59L25.83-0.59Q25.83-1.27 26.02-1.27L26.02-1.27Q26.66-1.27 27.9-1.56 29.15-1.86 29.29-2.25L29.29-2.25Q29.64-3.56 29.64-6.59L29.64-6.59 29.64-25.54Q29.64-28.56 29.29-29.88L29.29-29.88Q29.15-30.27 27.9-30.59 26.66-30.91 26.02-30.91L26.02-30.91Q25.83-30.91 25.83-31.54L25.83-31.54Q25.83-32.13 26.02-32.32L26.02-32.32Q26.66-32.28 28.61-32.15 30.56-32.03 31.88-32.03L31.88-32.03Q32.86-32.03 33.79-32.08 34.71-32.13 35.79-32.2 36.86-32.28 37.55-32.32L37.55-32.32Q37.64-32.13 37.62-31.52 37.6-30.91 37.45-30.91L37.45-30.91Q36.96-30.91 35.69-30.57 34.42-30.22 34.32-29.88L34.32-29.88Q33.88-28.17 33.88-25.34L33.88-25.34 33.88-18.07 33.98-17.92Q38.77-17.82 41.4-17.82L41.4-17.82Q44.24-17.82 48.63-17.92L48.63-17.92Q48.73-18.02 48.73-18.12L48.73-18.12 48.73-25.54Q48.73-28.56 48.39-29.88L48.39-29.88Q48.24-30.27 46.99-30.59 45.75-30.91 45.11-30.91L45.11-30.91Q44.92-30.91 44.92-31.52 44.92-32.13 45.11-32.32L45.11-32.32Q45.7-32.28 47.7-32.15 49.7-32.03 51.02-32.03L51.02-32.03Q51.95-32.03 52.88-32.08 53.81-32.13 54.86-32.2 55.91-32.28 56.59-32.32L56.59-32.32Q56.69-32.03 56.69-31.59L56.69-31.59Q56.69-30.91 56.49-30.91L56.49-30.91Q56-30.91 54.73-30.57 53.46-30.22 53.37-29.88L53.37-29.88Q52.98-28.37 52.98-25.34L52.98-25.34 52.98-6.79Q52.98-3.76 53.37-2.25L53.37-2.25Q53.46-1.9 54.73-1.59 56-1.27 56.49-1.27L56.49-1.27Q56.69-1.27 56.69-0.54L56.69-0.54Q56.69-0.15 56.59 0.15L56.59 0.15Q51.71-0.1 51.02-0.1L51.02-0.1Q50.73-0.1 45.11 0.15L45.11 0.15Q44.92-0.05 44.92-0.66 44.92-1.27 45.11-1.27L45.11-1.27Q45.75-1.27 46.99-1.56 48.24-1.86 48.39-2.25L48.39-2.25Q48.73-3.56 48.73-6.59ZM75.87-32.37L76.31-32.23 86.08-6.45Q86.96-4.15 87.5-2.93L87.5-2.93Q87.79-2.2 89.01-1.73 90.23-1.27 90.82-1.27L90.82-1.27Q91.01-1.27 91.01-0.34L91.01-0.34Q91.01-0.15 90.91 0.15L90.91 0.15Q86.03-0.1 85.54-0.1L85.54-0.1Q85.49-0.1 79.88 0.15L79.88 0.15Q79.68-0.05 79.71-0.66 79.73-1.27 79.93-1.27L79.93-1.27Q80.51-1.27 81.39-1.51 82.27-1.76 82.42-2.15L82.42-2.15Q82.51-2.54 82.51-2.93L82.51-2.93Q82.51-3.56 82.34-4.42 82.17-5.27 82.03-5.76L82.03-5.76 81.83-6.3 79.83-11.82Q79.68-12.01 79.54-12.01L79.54-12.01Q77.63-12.16 75.83-12.16L75.83-12.16Q73.29-12.16 69.62-11.91L69.62-11.91 69.38-11.77 67.28-6.4Q66.45-3.96 66.45-3.03L66.45-3.03Q66.45-2.34 66.84-2.05L66.84-2.05Q67.28-1.71 68.26-1.49 69.23-1.27 69.67-1.27L69.67-1.27Q69.82-1.27 69.84-0.68 69.87-0.1 69.77 0.15L69.77 0.15Q64.89-0.1 64.74-0.1L64.74-0.1Q63.76-0.1 63.03-0.05 62.3 0 61.4 0.05 60.49 0.1 59.66 0.15L59.66 0.15Q59.47-0.05 59.47-0.59L59.47-0.59Q59.47-1.27 59.66-1.27L59.66-1.27Q60.25-1.27 61.18-1.51 62.1-1.76 62.45-2.2L62.45-2.2Q63.47-3.52 64.74-6.79L64.74-6.79 73.24-28.61Q73.33-28.86 73.51-29.39 73.68-29.93 73.77-30.2 73.87-30.47 74.07-30.88 74.26-31.3 74.41-31.49 74.56-31.69 74.78-31.93 75-32.18 75.26-32.28 75.53-32.37 75.87-32.37L75.87-32.37ZM70.65-14.6L70.65-14.6Q73.19-14.5 74.12-14.5L74.12-14.5Q76.26-14.5 78.56-14.65L78.56-14.65 78.71-14.89 74.75-25.68 70.55-14.79Q70.55-14.6 70.65-14.6ZM105.9-30.08L105.9-30.08Q103.7-30.08 102.48-29.74L102.48-29.74Q102.29-29.69 102.17-29.37 102.04-29.05 101.97-27.91 101.9-26.76 101.9-24.37L101.9-24.37 101.9-18.46Q101.9-17.04 106.14-17.04L106.14-17.04 107.37-17.04Q109.07-17.04 110.91-18.75 112.74-20.46 112.74-23.29L112.74-23.29Q112.74-30.08 105.9-30.08ZM106.68-32.23L106.68-32.23Q108.34-32.23 110.05-31.74 111.76-31.25 113.42-30.27 115.08-29.3 116.15-27.49 117.23-25.68 117.23-23.29L117.23-23.29Q117.23-21.24 115.69-18.99 114.15-16.75 111.52-15.53L111.52-15.53Q111.03-15.33 111.22-15.04L111.22-15.04Q113.66-9.91 116.84-6.45L116.84-6.45Q121.53-1.32 124.46-1.32L124.46-1.32Q124.6-1.03 124.6-0.63L124.6-0.63Q124.6-0.2 124.46 0.1L124.46 0.1Q123.92 0.24 123.14 0.24L123.14 0.24Q116.3 0.24 111.27-6.79L111.27-6.79Q110.49-7.86 109.49-9.35 108.49-10.84 108.02-11.5 107.56-12.16 106.95-12.94 106.34-13.72 105.88-14.11 105.41-14.5 104.88-14.75L104.88-14.75Q104.34-14.94 103.07-14.94L103.07-14.94Q102.68-14.94 102.48-14.92 102.29-14.89 102.09-14.7 101.9-14.5 101.9-14.11L101.9-14.11 101.9-6.93Q101.9-3.66 102.29-2.69L102.29-2.69Q102.53-2.05 104.02-1.66 105.51-1.27 106.14-1.27L106.14-1.27Q106.34-1.27 106.34-0.59L106.34-0.59Q106.34-0.15 106.24 0.15L106.24 0.15Q101.36-0.1 99.89-0.1L99.89-0.1 93.94 0.15Q93.79 0 93.79-0.73L93.79-0.73Q93.79-1.37 93.94-1.37L93.94-1.37Q94.62-1.37 95.84-1.66 97.06-1.95 97.31-2.39L97.31-2.39Q97.65-2.98 97.65-6.98L97.65-6.98 97.65-25.44Q97.65-28.32 97.31-29.64L97.31-29.64Q97.16-30.03 95.87-30.37 94.57-30.71 93.94-30.71L93.94-30.71Q93.74-30.71 93.74-31.3L93.74-31.3Q93.74-31.93 93.94-32.13L93.94-32.13 99.8-32.03Q101.26-32.03 103.26-32.13 105.27-32.23 106.68-32.23ZM131.53-32.03L131.53-32.03Q133.73-32.03 139.15-32.23 144.57-32.42 147.3-32.42L147.3-32.42Q147.5-31.01 148.06-28.69 148.62-26.37 148.72-25.78L148.72-25.78Q148.48-25.54 147.84-25.54 147.21-25.54 147.16-25.88L147.16-25.88Q146.43-28.56 145.11-29.32 143.79-30.08 141.49-30.08L141.49-30.08 138.22-30.08Q134.02-30.08 133.93-29.44L133.93-29.44Q133.68-28.27 133.68-25.34L133.68-25.34 133.68-17.53Q133.68-17.24 135.78-17.24L135.78-17.24 138.37-17.24Q139.74-17.24 140.35-17.24 140.96-17.24 141.64-17.43 142.32-17.63 142.52-17.68 142.71-17.72 143.03-18.31 143.35-18.9 143.4-19.17 143.45-19.43 143.74-20.56L143.74-20.56Q143.79-20.9 144.47-20.9L144.47-20.9Q145.06-20.9 145.3-20.65L145.3-20.65 145.3-11.43Q145.11-11.23 144.52-11.23L144.52-11.23Q143.89-11.23 143.74-11.62L143.74-11.62Q143.4-12.94 143.15-13.6 142.91-14.26 142.79-14.38 142.67-14.5 142.37-14.7L142.37-14.7Q141.74-15.09 137.2-15.09L137.2-15.09Q133.68-15.09 133.68-14.65L133.68-14.65 133.68-7.08Q133.68-3.91 134.12-2.64L134.12-2.64Q134.27-2.15 137.44-2.15L137.44-2.15 139.78-2.15Q144.33-2.15 145.94-2.98L145.94-2.98Q146.67-3.37 147.57-4.71 148.48-6.05 149.01-7.91L149.01-7.91Q149.11-8.2 149.7-8.2L149.7-8.2Q150.62-8.2 150.92-7.91L150.92-7.91Q150.67-7.28 150.16-5.88 149.65-4.49 149.36-3.64 149.06-2.78 148.72-1.66 148.38-0.54 148.28 0.2L148.28 0.2Q145.79 0.2 140.42 0.1 135.05 0 131.63 0L131.63 0 125.72 0.15Q125.58 0 125.58-0.63 125.58-1.27 125.72-1.27L125.72-1.27Q126.36-1.27 127.6-1.61 128.85-1.95 129.09-2.39L129.09-2.39Q129.43-2.98 129.43-6.98L129.43-6.98 129.43-25.44Q129.43-28.32 129.09-29.64L129.09-29.64Q128.95-30.03 127.65-30.37 126.36-30.71 125.72-30.71L125.72-30.71Q125.53-30.71 125.53-31.3L125.53-31.3Q125.53-31.93 125.72-32.13L125.72-32.13Q128.26-32.03 131.53-32.03ZM171.03-32.03L171.03-32.03Q172.01-32.03 172.93-32.08 173.86-32.13 174.94-32.2 176.01-32.28 176.69-32.32L176.69-32.32Q176.79-32.03 176.79-31.59L176.79-31.59Q176.79-30.91 176.6-30.91L176.6-30.91Q176.11-30.91 174.84-30.57 173.57-30.22 173.47-29.88L173.47-29.88Q173.03-28.17 173.03-25.34L173.03-25.34 173.03-6.93Q173.03-4.35 173.47-2.64L173.47-2.64Q173.62-2.15 176.79-2.15L176.79-2.15 179.14-2.15Q183.68-2.15 185.29-2.98L185.29-2.98Q186.02-3.37 186.92-4.71 187.83-6.05 188.36-7.91L188.36-7.91Q188.46-8.2 189.05-8.2L189.05-8.2Q189.98-8.2 190.27-7.91L190.27-7.91Q190.02-7.28 189.51-5.88 189-4.49 188.71-3.64 188.41-2.78 188.07-1.66 187.73-0.54 187.63 0.2L187.63 0.2Q185.09 0.2 179.7 0.05 174.3-0.1 170.98-0.1L170.98-0.1 165.07 0.05Q164.93-0.1 164.93-0.73 164.93-1.37 165.07-1.37L165.07-1.37Q165.76-1.37 166.98-1.66 168.2-1.95 168.44-2.39L168.44-2.39Q168.78-2.98 168.78-6.98L168.78-6.98 168.78-25.44Q168.78-28.56 168.44-29.88L168.44-29.88Q168.3-30.27 167.05-30.59 165.81-30.91 165.17-30.91L165.17-30.91Q164.98-30.91 164.98-31.54L164.98-31.54Q164.98-32.13 165.17-32.32L165.17-32.32Q165.81-32.28 167.76-32.15 169.71-32.03 171.03-32.03ZM196.56-6.59L196.56-25.54Q196.56-28.56 196.22-29.88L196.22-29.88Q196.08-30.27 194.83-30.59 193.59-30.91 192.95-30.91L192.95-30.91Q192.76-30.91 192.76-31.54L192.76-31.54Q192.76-32.13 192.95-32.32L192.95-32.32Q198.57-32.08 198.81-32.08L198.81-32.08Q199.59-32.08 204.47-32.32L204.47-32.32Q204.57-32.03 204.57-31.59L204.57-31.59Q204.57-30.91 204.38-30.91L204.38-30.91Q203.89-30.91 202.62-30.57 201.35-30.22 201.25-29.88L201.25-29.88Q200.81-28.17 200.81-25.34L200.81-25.34 200.81-6.79Q200.81-3.96 201.25-2.25L201.25-2.25Q201.35-1.9 202.62-1.59 203.89-1.27 204.38-1.27L204.38-1.27Q204.57-1.27 204.57-0.54L204.57-0.54Q204.57-0.15 204.47 0.15L204.47 0.15Q199.59-0.1 198.81-0.1L198.81-0.1Q198.57-0.1 192.95 0.15L192.95 0.15Q192.76-0.05 192.76-0.59L192.76-0.59Q192.76-1.27 192.95-1.27L192.95-1.27Q193.59-1.27 194.83-1.56 196.08-1.86 196.22-2.25L196.22-2.25Q196.56-3.56 196.56-6.59L196.56-6.59ZM214.38-32.03L214.38-32.03Q216.58-32.03 222-32.23 227.42-32.42 230.16-32.42L230.16-32.42Q230.35-31.01 230.91-28.69 231.47-26.37 231.57-25.78L231.57-25.78Q231.33-25.54 230.69-25.54 230.06-25.54 230.01-25.88L230.01-25.88Q229.28-28.56 227.96-29.32 226.64-30.08 224.35-30.08L224.35-30.08 221.07-30.08Q216.87-30.08 216.78-29.44L216.78-29.44Q216.53-28.27 216.53-25.34L216.53-25.34 216.53-17.38Q216.53-17.09 218.58-17.09L218.58-17.09 221.17-17.09Q224.44-17.09 225.18-17.55 225.91-18.02 226.44-20.21L226.44-20.21Q226.49-20.51 226.54-20.65L226.54-20.65Q226.59-21 227.27-21L227.27-21Q227.86-21 228.11-20.75L228.11-20.75 228.11-11.28Q227.91-11.08 227.32-11.08L227.32-11.08Q226.69-11.08 226.54-11.47L226.54-11.47Q226.2-12.79 225.96-13.45 225.71-14.11 225.59-14.23 225.47-14.36 225.18-14.55L225.18-14.55Q224.54-14.94 220-14.94L220-14.94Q216.53-14.94 216.53-14.5L216.53-14.5 216.53-6.79Q216.53-3.96 216.97-2.25L216.97-2.25Q217.07-1.9 218.34-1.59 219.61-1.27 220.1-1.27L220.1-1.27Q220.29-1.27 220.29-0.54L220.29-0.54Q220.29-0.15 220.19 0.15L220.19 0.15Q215.31-0.1 214.53-0.1L214.53-0.1Q214.29-0.1 208.67 0.15L208.67 0.15Q208.48-0.05 208.48-0.59L208.48-0.59Q208.48-1.27 208.67-1.27L208.67-1.27Q209.31-1.27 210.55-1.56 211.8-1.86 211.94-2.25L211.94-2.25Q212.28-3.56 212.28-6.64L212.28-6.64 212.28-25.44Q212.28-28.32 211.94-29.64L211.94-29.64Q211.8-30.03 210.5-30.37 209.21-30.71 208.57-30.71L208.57-30.71Q208.38-30.71 208.38-31.3L208.38-31.3Q208.38-31.93 208.57-32.13L208.57-32.13Q211.11-32.03 214.38-32.03ZM240.75-32.03L240.75-32.03Q242.95-32.03 248.37-32.23 253.79-32.42 256.52-32.42L256.52-32.42Q256.72-31.01 257.28-28.69 257.84-26.37 257.94-25.78L257.94-25.78Q257.69-25.54 257.06-25.54 256.42-25.54 256.37-25.88L256.37-25.88Q255.64-28.56 254.32-29.32 253-30.08 250.71-30.08L250.71-30.08 247.44-30.08Q243.24-30.08 243.14-29.44L243.14-29.44Q242.9-28.27 242.9-25.34L242.9-25.34 242.9-17.53Q242.9-17.24 245-17.24L245-17.24 247.58-17.24Q248.95-17.24 249.56-17.24 250.17-17.24 250.86-17.43 251.54-17.63 251.74-17.68 251.93-17.72 252.25-18.31 252.57-18.9 252.61-19.17 252.66-19.43 252.96-20.56L252.96-20.56Q253-20.9 253.69-20.9L253.69-20.9Q254.27-20.9 254.52-20.65L254.52-20.65 254.52-11.43Q254.32-11.23 253.74-11.23L253.74-11.23Q253.1-11.23 252.96-11.62L252.96-11.62Q252.61-12.94 252.37-13.6 252.13-14.26 252-14.38 251.88-14.5 251.59-14.7L251.59-14.7Q250.95-15.09 246.41-15.09L246.41-15.09Q242.9-15.09 242.9-14.65L242.9-14.65 242.9-7.08Q242.9-3.91 243.34-2.64L243.34-2.64Q243.48-2.15 246.66-2.15L246.66-2.15 249-2.15Q253.54-2.15 255.15-2.98L255.15-2.98Q255.89-3.37 256.79-4.71 257.69-6.05 258.23-7.91L258.23-7.91Q258.33-8.2 258.91-8.2L258.91-8.2Q259.84-8.2 260.13-7.91L260.13-7.91Q259.89-7.28 259.38-5.88 258.86-4.49 258.57-3.64 258.28-2.78 257.94-1.66 257.59-0.54 257.5 0.2L257.5 0.2Q255.01 0.2 249.64 0.1 244.26 0 240.85 0L240.85 0 234.94 0.15Q234.79 0 234.79-0.63 234.79-1.27 234.94-1.27L234.94-1.27Q235.57-1.27 236.82-1.61 238.06-1.95 238.31-2.39L238.31-2.39Q238.65-2.98 238.65-6.98L238.65-6.98 238.65-25.44Q238.65-28.32 238.31-29.64L238.31-29.64Q238.16-30.03 236.87-30.37 235.57-30.71 234.94-30.71L234.94-30.71Q234.74-30.71 234.74-31.3L234.74-31.3Q234.74-31.93 234.94-32.13L234.94-32.13Q237.48-32.03 240.75-32.03Z" opacity="1" transform="matrix(1,0,0,1,0,0)" fill="#e363aa" class="undefined-text-0" data-fill-palette-color="primary" id="text-0"></path></svg></g></svg></g></svg></g></svg></g></svg></g></svg><rect width="395.52" height="119.27206485462456" fill="none" stroke="none" visibility="hidden"></rect></g></svg></g></svg>