<svg xmlns="http://www.w3.org/2000/svg" version="1.1" xmlns:xlink="http://www.w3.org/1999/xlink" xmlns:svgjs="http://svgjs.dev/svgjs" width="1000" height="1092" viewBox="0 0 1000 1092"><g transform="matrix(1,0,0,1,0.9210303816018381,0.4421265065841453)"><svg viewBox="0 0 226 247" data-background-color="#ffffff" preserveAspectRatio="xMidYMid meet" height="1092" width="1000" xmlns="http://www.w3.org/2000/svg" xmlns:xlink="http://www.w3.org/1999/xlink"><defs></defs><g id="tight-bounds" transform="matrix(1,0,0,1,-0.2081528662420169,-0.09999519493928233)"><svg viewBox="0 0 226.41630573248406 247.2" height="247.2" width="226.41630573248406"><g><svg viewBox="0 0 226.41630573248406 247.2" height="247.2" width="226.41630573248406"><g><svg viewBox="0 0 226.41630573248406 247.2" height="247.2" width="226.41630573248406"><g><svg viewBox="0 0 226.41630573248406 247.2" height="247.2" width="226.41630573248406"><g><svg viewBox="0 0 226.41630573248406 247.2" height="247.2" width="226.41630573248406"><g transform="matrix(1,0,0,1,0,0)"><svg width="226.41630573248406" viewBox="2.25 -38.849998474121094 35.95000076293945 39.25" height="247.2" data-palette-color="#c53683"><path d="M26.05-33.45L24-29.35Q22.1-30.35 19.9-31.05 17.7-31.75 15.65-31.75L15.65-31.75Q12.85-31.75 11.2-30.48 9.55-29.2 9.55-27L9.55-27Q9.55-25.45 10.65-24.3 11.75-23.15 13.5-22.3 15.25-21.45 17.2-20.7L17.2-20.7Q18.85-20.1 20.48-19.28 22.1-18.45 23.43-17.25 24.75-16.05 25.53-14.28 26.3-12.5 26.3-9.95L26.3-9.95Q26.3-7.05 24.88-4.7 23.45-2.35 20.78-0.98 18.1 0.4 14.3 0.4L14.3 0.4Q12 0.4 9.83-0.13 7.65-0.65 5.73-1.53 3.8-2.4 2.25-3.45L2.25-3.45 4.65-7.6Q5.85-6.75 7.4-5.98 8.95-5.2 10.63-4.75 12.3-4.3 13.8-4.3L13.8-4.3Q15.45-4.3 17.05-4.88 18.65-5.45 19.7-6.68 20.75-7.9 20.75-9.9L20.75-9.9Q20.75-11.6 19.83-12.78 18.9-13.95 17.38-14.8 15.85-15.65 14.1-16.3L14.1-16.3Q12.4-16.95 10.65-17.75 8.9-18.55 7.4-19.68 5.9-20.8 4.98-22.48 4.05-24.15 4.05-26.6L4.05-26.6Q4.05-29.5 5.43-31.68 6.8-33.85 9.25-35.1 11.7-36.35 14.9-36.5L14.9-36.5Q18.55-36.5 21.25-35.6 23.95-34.7 26.05-33.45L26.05-33.45ZM33.05 0L33.05-38.85 38.2-38.85 38.2 0 33.05 0Z" opacity="1" transform="matrix(1,0,0,1,0,0)" fill="#c53683" class="undefined-text-0" data-fill-palette-color="primary" id="text-0"></path></svg></g></svg></g></svg></g></svg></g><g></g></svg></g></svg><rect width="226.41630573248406" height="247.2" fill="none" stroke="none" visibility="hidden"></rect></g></svg></g></svg>